<?xml version="1.0" encoding="UTF-8"?>
<svg xmlns="http://www.w3.org/2000/svg" xmlns:xlink="http://www.w3.org/1999/xlink" width="364.86" height="172.62" viewBox="0 0 364.86 172.62">
<path fill-rule="nonzero" fill="rgb(13.729858%, 12.159729%, 12.548828%)" fill-opacity="1" d="M 10.285156 128.75 L 10.285156 140.484375 L 16.875 140.484375 C 20.484375 140.484375 22.683594 138.402344 22.683594 134.617188 C 22.683594 130.832031 20.484375 128.75 16.875 128.75 Z M 4.996094 124.503906 L 16.875 124.503906 C 24.070312 124.503906 28.085938 128.375 28.085938 134.617188 C 28.085938 140.859375 24.070312 144.730469 16.875 144.730469 L 4.996094 144.730469 Z M 4.996094 124.503906 "/>
<path fill-rule="nonzero" fill="rgb(13.729858%, 12.159729%, 12.548828%)" fill-opacity="1" d="M 32.015625 124.503906 L 51.4375 124.503906 L 51.4375 128.75 L 37.304688 128.75 L 37.304688 132.390625 L 48.980469 132.390625 L 48.980469 136.292969 L 37.304688 136.292969 L 37.304688 140.484375 L 51.4375 140.484375 L 51.4375 144.730469 L 32.015625 144.730469 Z M 32.015625 124.503906 "/>
<path fill-rule="nonzero" fill="rgb(13.729858%, 12.159729%, 12.548828%)" fill-opacity="1" d="M 66.171875 136.640625 C 58.199219 136.609375 54.5 135.828125 54.5 130.511719 C 54.5 125.859375 58.429688 124.242188 65.539062 124.214844 C 68.832031 124.214844 72.011719 124.53125 74.378906 125.050781 L 74.378906 129.445312 C 71.75 128.835938 68.28125 128.433594 65.539062 128.460938 C 62.15625 128.488281 59.875 129.152344 59.875 130.832031 C 59.875 132.710938 62.964844 132.621094 64.757812 132.59375 C 71.75 132.535156 75.332031 133.460938 75.332031 138.460938 C 75.332031 142.9375 71.691406 145.046875 63.949219 145.019531 C 60.566406 144.992188 56.753906 144.585938 54.757812 144.125 L 54.757812 139.730469 C 56.664062 140.195312 60.335938 140.742188 63.6875 140.742188 C 67.761719 140.773438 69.957031 139.960938 69.957031 138.34375 C 69.957031 136.667969 67.648438 136.640625 66.171875 136.640625 "/>
<path fill-rule="nonzero" fill="rgb(13.729858%, 12.159729%, 12.548828%)" fill-opacity="1" d="M 79.261719 124.503906 L 98.683594 124.503906 L 98.683594 128.75 L 84.550781 128.75 L 84.550781 132.390625 L 96.226562 132.390625 L 96.226562 136.292969 L 84.550781 136.292969 L 84.550781 140.484375 L 98.683594 140.484375 L 98.683594 144.730469 L 79.261719 144.730469 Z M 79.261719 124.503906 "/>
<path fill-rule="nonzero" fill="rgb(13.729858%, 12.159729%, 12.548828%)" fill-opacity="1" d="M 108.191406 128.75 L 108.191406 134.242188 L 115.242188 134.242188 C 118.074219 134.242188 119.285156 133.34375 119.285156 131.496094 C 119.285156 129.675781 118.074219 128.75 115.242188 128.75 Z M 102.902344 124.503906 L 115.269531 124.503906 C 121.714844 124.503906 124.691406 126.84375 124.691406 131.292969 C 124.691406 134.789062 122.984375 136.839844 119.691406 137.390625 C 119.605469 137.417969 119.429688 137.417969 119.34375 137.449219 C 120.875 138.691406 121.914062 140.195312 123.5625 140.195312 L 126.105469 140.195312 L 126.105469 144.816406 L 122.925781 144.816406 C 117.496094 144.816406 116.398438 138.140625 111.222656 137.851562 L 108.191406 137.851562 L 108.191406 144.730469 L 102.902344 144.730469 Z M 102.902344 124.503906 "/>
<path fill-rule="nonzero" fill="rgb(13.729858%, 12.159729%, 12.548828%)" fill-opacity="1" d="M 136.363281 128.75 L 127.117188 128.75 L 127.117188 124.503906 L 150.902344 124.503906 L 150.902344 128.75 L 141.652344 128.75 L 141.652344 144.730469 L 136.363281 144.730469 Z M 136.363281 128.75 "/>
<path fill-rule="nonzero" fill="rgb(13.729858%, 12.159729%, 12.548828%)" fill-opacity="1" d="M 174.074219 128.75 L 174.074219 140.484375 L 180.664062 140.484375 C 184.277344 140.484375 186.472656 138.402344 186.472656 134.617188 C 186.472656 130.832031 184.277344 128.75 180.664062 128.75 Z M 168.789062 124.503906 L 180.664062 124.503906 C 187.859375 124.503906 191.875 128.375 191.875 134.617188 C 191.875 140.859375 187.859375 144.730469 180.664062 144.730469 L 168.789062 144.730469 Z M 168.789062 124.503906 "/>
<path fill-rule="nonzero" fill="rgb(13.729858%, 12.159729%, 12.548828%)" fill-opacity="1" d="M 209.476562 136.871094 L 206.296875 128.867188 L 204.332031 128.867188 L 201.152344 136.871094 Z M 200.632812 124.5 L 209.996094 124.5 L 218.171875 144.730469 L 212.539062 144.730469 L 210.976562 140.859375 L 199.621094 140.859375 L 198.089844 144.730469 L 192.453125 144.730469 Z M 200.632812 124.5 "/>
<path fill-rule="nonzero" fill="rgb(13.729858%, 12.159729%, 12.548828%)" fill-opacity="1" d="M 221.0625 124.503906 L 226.871094 124.503906 L 237.359375 136.636719 L 237.765625 136.636719 L 237.765625 124.503906 L 243.054688 124.503906 L 243.054688 144.730469 L 237.417969 144.730469 L 226.757812 132.363281 L 226.351562 132.363281 L 226.351562 144.730469 L 221.0625 144.730469 Z M 221.0625 124.503906 "/>
<path fill-rule="nonzero" fill="rgb(13.729858%, 12.159729%, 12.548828%)" fill-opacity="1" d="M 268.222656 139.789062 L 268.222656 144.152344 C 266.203125 144.671875 263.628906 145.019531 260.277344 145.019531 C 251.753906 145.019531 246.984375 141.203125 246.984375 134.617188 C 246.984375 128.027344 251.753906 124.214844 260.277344 124.214844 C 263.628906 124.214844 266.203125 124.558594 268.222656 125.082031 L 268.222656 129.445312 C 266.027344 128.835938 262.472656 128.460938 259.960938 128.460938 C 255.019531 128.460938 252.386719 130.742188 252.386719 134.617188 C 252.386719 138.488281 255.019531 140.769531 259.960938 140.769531 C 262.472656 140.769531 266.027344 140.394531 268.222656 139.789062 "/>
<path fill-rule="nonzero" fill="rgb(13.729858%, 12.159729%, 12.548828%)" fill-opacity="1" d="M 271.863281 124.503906 L 291.285156 124.503906 L 291.285156 128.75 L 277.152344 128.75 L 277.152344 132.390625 L 288.828125 132.390625 L 288.828125 136.292969 L 277.152344 136.292969 L 277.152344 140.484375 L 291.285156 140.484375 L 291.285156 144.730469 L 271.863281 144.730469 Z M 271.863281 124.503906 "/>
<path fill-rule="nonzero" fill="rgb(13.729858%, 12.159729%, 12.548828%)" fill-opacity="1" d="M 20.171875 164.691406 L 20.171875 167.035156 C 18.757812 167.398438 16.957031 167.640625 14.269531 167.640625 C 8.957031 167.640625 5.605469 164.894531 5.605469 160.367188 C 5.605469 155.839844 8.957031 153.09375 14.269531 153.09375 C 16.957031 153.09375 18.757812 153.335938 20.171875 153.699219 L 20.171875 156.042969 C 18.636719 155.617188 16.171875 155.359375 14.148438 155.359375 C 10.613281 155.359375 8.390625 157.195312 8.390625 160.367188 C 8.390625 163.539062 10.613281 165.378906 14.148438 165.378906 C 16.171875 165.378906 18.636719 165.117188 20.171875 164.691406 "/>
<path fill-rule="nonzero" fill="rgb(13.729858%, 12.159729%, 12.548828%)" fill-opacity="1" d="M 34.722656 165.398438 C 38.117188 165.398438 40.378906 163.4375 40.378906 160.367188 C 40.378906 157.296875 38.117188 155.359375 34.722656 155.359375 C 31.347656 155.359375 29.066406 157.296875 29.066406 160.367188 C 29.066406 163.4375 31.347656 165.398438 34.722656 165.398438 M 34.722656 153.09375 C 39.914062 153.09375 43.167969 156.003906 43.167969 160.367188 C 43.167969 164.730469 39.914062 167.640625 34.722656 167.640625 C 29.546875 167.640625 26.277344 164.730469 26.277344 160.367188 C 26.277344 156.003906 29.546875 153.09375 34.722656 153.09375 "/>
<path fill-rule="nonzero" fill="rgb(13.729858%, 12.159729%, 12.548828%)" fill-opacity="1" d="M 50.285156 153.296875 L 53.191406 153.296875 L 58.847656 160.425781 L 59.375 160.425781 L 65.03125 153.296875 L 67.941406 153.296875 L 67.941406 167.4375 L 65.195312 167.4375 L 65.195312 157.476562 L 64.871094 157.476562 L 60.304688 163.277344 L 57.902344 163.277344 L 53.335938 157.476562 L 53.03125 157.476562 L 53.03125 167.4375 L 50.285156 167.4375 Z M 50.285156 153.296875 "/>
<path fill-rule="nonzero" fill="rgb(13.729858%, 12.159729%, 12.548828%)" fill-opacity="1" d="M 78.613281 155.558594 L 78.613281 160.429688 L 83.988281 160.429688 C 86.371094 160.429688 87.339844 159.640625 87.339844 157.984375 C 87.339844 156.347656 86.371094 155.558594 83.988281 155.558594 Z M 75.867188 153.296875 L 84.050781 153.296875 C 88.191406 153.296875 90.152344 154.890625 90.152344 157.984375 C 90.152344 161.09375 88.191406 162.671875 84.050781 162.671875 L 78.613281 162.671875 L 78.613281 167.4375 L 75.867188 167.4375 Z M 75.867188 153.296875 "/>
<path fill-rule="nonzero" fill="rgb(13.729858%, 12.159729%, 12.548828%)" fill-opacity="1" d="M 97.265625 153.296875 L 110.015625 153.296875 L 110.015625 155.601562 L 100.015625 155.601562 L 100.015625 158.953125 L 108.359375 158.953125 L 108.359375 161.195312 L 100.015625 161.195312 L 100.015625 165.136719 L 110.015625 165.136719 L 110.015625 167.4375 L 97.265625 167.4375 Z M 97.265625 153.296875 "/>
<path fill-rule="nonzero" fill="rgb(13.729858%, 12.159729%, 12.548828%)" fill-opacity="1" d="M 122.464844 155.601562 L 115.734375 155.601562 L 115.734375 153.296875 L 131.960938 153.296875 L 131.960938 155.601562 L 125.210938 155.601562 L 125.210938 167.4375 L 122.464844 167.4375 Z M 122.464844 155.601562 "/>
<path fill-rule="nonzero" fill="rgb(13.729858%, 12.159729%, 12.548828%)" fill-opacity="1" d="M 138.289062 153.296875 L 141.035156 153.296875 L 141.035156 167.4375 L 138.289062 167.4375 Z M 138.289062 153.296875 "/>
<path fill-rule="nonzero" fill="rgb(13.729858%, 12.159729%, 12.548828%)" fill-opacity="1" d="M 154.089844 155.601562 L 147.359375 155.601562 L 147.359375 153.296875 L 163.585938 153.296875 L 163.585938 155.601562 L 156.835938 155.601562 L 156.835938 167.4375 L 154.089844 167.4375 Z M 154.089844 155.601562 "/>
<path fill-rule="nonzero" fill="rgb(13.729858%, 12.159729%, 12.548828%)" fill-opacity="1" d="M 169.914062 153.296875 L 172.660156 153.296875 L 172.660156 167.4375 L 169.914062 167.4375 Z M 169.914062 153.296875 "/>
<path fill-rule="nonzero" fill="rgb(13.729858%, 12.159729%, 12.548828%)" fill-opacity="1" d="M 188.21875 165.398438 C 191.613281 165.398438 193.875 163.4375 193.875 160.367188 C 193.875 157.296875 191.613281 155.359375 188.21875 155.359375 C 184.84375 155.359375 182.5625 157.296875 182.5625 160.367188 C 182.5625 163.4375 184.84375 165.398438 188.21875 165.398438 M 188.21875 153.09375 C 193.410156 153.09375 196.664062 156.003906 196.664062 160.367188 C 196.664062 164.730469 193.410156 167.640625 188.21875 167.640625 C 183.046875 167.640625 179.773438 164.730469 179.773438 160.367188 C 179.773438 156.003906 183.046875 153.09375 188.21875 153.09375 "/>
<path fill-rule="nonzero" fill="rgb(13.729858%, 12.159729%, 12.548828%)" fill-opacity="1" d="M 203.78125 153.296875 L 206.648438 153.296875 L 214.832031 163.035156 L 215.136719 163.035156 L 215.136719 153.296875 L 217.882812 153.296875 L 217.882812 167.4375 L 215.054688 167.4375 L 206.851562 157.660156 L 206.527344 157.660156 L 206.527344 167.4375 L 203.78125 167.4375 Z M 203.78125 153.296875 "/>
<path fill-rule="nonzero" fill="rgb(13.729858%, 12.159729%, 12.548828%)" fill-opacity="1" d="M 72.808594 108.824219 L 5.839844 108.824219 L 5.839844 4.550781 L 72.808594 4.550781 C 93.359375 4.550781 110.015625 21.207031 110.015625 41.757812 L 110.015625 71.617188 C 110.015625 92.167969 93.359375 108.824219 72.808594 108.824219 "/>
<path fill-rule="nonzero" fill="rgb(84.60083%, 90.756226%, 13.685608%)" fill-opacity="1" d="M 183.984375 108.824219 L 117.011719 108.824219 L 117.011719 4.550781 L 183.984375 4.550781 C 204.53125 4.550781 221.191406 21.207031 221.191406 41.757812 L 221.191406 71.617188 C 221.191406 92.167969 204.53125 108.824219 183.984375 108.824219 "/>
<path fill-rule="nonzero" fill="rgb(13.729858%, 12.159729%, 12.548828%)" fill-opacity="1" d="M 275.960938 58.589844 C 274.871094 58.589844 273.984375 57.703125 273.984375 56.613281 C 273.984375 55.519531 274.871094 54.632812 275.960938 54.632812 L 332.429688 54.632812 L 332.429688 4.550781 L 254.125 4.550781 C 239.835938 4.550781 228.253906 16.132812 228.253906 30.421875 L 228.253906 82.953125 C 228.253906 97.242188 239.835938 108.824219 254.125 108.824219 L 332.429688 108.824219 L 332.429688 58.589844 Z M 275.960938 58.589844 "/>
<path fill-rule="nonzero" fill="rgb(13.729858%, 12.159729%, 12.548828%)" fill-opacity="1" d="M 352.238281 109.59375 L 346.285156 109.59375 C 342.070312 109.59375 338.65625 106.179688 338.65625 101.964844 L 338.65625 96.011719 C 338.65625 91.800781 342.070312 88.386719 346.285156 88.386719 L 352.238281 88.386719 C 356.449219 88.386719 359.863281 91.800781 359.863281 96.011719 L 359.863281 101.964844 C 359.863281 106.179688 356.449219 109.59375 352.238281 109.59375 "/>
</svg>
